<svg width="266" height="84" viewBox="0 0 266 84" fill="none" xmlns="http://www.w3.org/2000/svg">
<g clip-path="url(#clip0_100_3917)">
<path d="M205.614 54.2382C203.032 52.9285 200.899 50.9722 199.459 48.5928C197.929 46.0555 197.153 43.188 197.208 40.2823C197.153 37.3765 197.929 34.509 199.459 31.9718C200.931 29.5644 203.12 27.6003 205.764 26.3138C208.597 24.9458 211.753 24.2555 214.947 24.3055C217.719 24.2995 220.461 24.8434 222.988 25.9007C225.461 26.9007 227.624 28.461 229.276 30.4382L222.194 36.0528C221.379 35.0989 220.337 34.3338 219.148 33.8177C217.959 33.3017 216.657 33.049 215.345 33.0796C214.346 33.0412 213.35 33.1974 212.421 33.5381C211.492 33.8787 210.65 34.3962 209.951 35.0571C209.259 35.7444 208.722 36.5519 208.369 37.4329C208.017 38.314 207.857 39.251 207.898 40.1899C207.888 41.1926 208.072 42.189 208.444 43.1309C208.78 43.9876 209.304 44.7706 209.982 45.4305C210.662 46.078 211.481 46.587 212.385 46.9248C213.358 47.2887 214.399 47.471 215.447 47.4612C216.724 47.4865 217.992 47.2495 219.158 46.7671C220.325 46.2848 221.362 45.5691 222.194 44.6714L229.44 50.5269C227.759 52.3314 225.645 53.7447 223.267 54.6527C220.467 55.7432 217.452 56.2807 214.415 56.2311C211.346 56.2754 208.316 55.5892 205.614 54.2382V54.2382ZM83.6928 54.4524C80.5423 53.2073 77.6909 51.3934 75.3047 49.1166L81.9894 41.4503C83.5787 43.1004 85.4937 44.4538 87.6314 45.4375C89.4006 46.2789 91.3518 46.7399 93.3398 46.7862C94.4139 46.8174 95.4835 46.6454 96.4834 46.2806C97.2071 46.0293 97.8269 45.5731 98.2547 44.9767C98.6039 44.4183 98.7811 43.7818 98.7671 43.1365C98.7882 42.5825 98.6635 42.0321 98.4039 41.5326C98.1443 41.0332 97.7575 40.5998 97.2769 40.2697C95.5137 39.2335 93.5961 38.4427 91.5851 37.9225C90.4153 37.5555 89.3725 37.2031 88.4566 36.8651C87.5407 36.5271 86.5538 36.107 85.4958 35.6047C84.5346 35.1559 83.6111 34.641 82.733 34.0641C81.9034 33.5098 81.1286 32.8884 80.4176 32.2071C79.6861 31.5192 79.0619 30.74 78.5632 29.8921C78.0575 28.9979 77.6689 28.051 77.4055 27.0715C77.0975 25.9493 76.9451 24.7953 76.9521 23.6375C76.9309 21.2716 77.6615 18.9522 79.0529 16.9683C80.4731 14.9386 82.452 13.2968 84.7855 12.2123C87.2505 11.0458 89.9765 10.4313 92.7443 10.4182C98.909 10.3834 104.871 12.4568 109.489 16.2415L103.035 24.031C99.1973 21.1721 95.8885 19.7427 93.1086 19.7427C91.9593 19.6836 90.8255 20.0103 89.915 20.6628C89.522 20.977 89.2094 21.3684 89.0003 21.8086C88.7911 22.2488 88.6906 22.7267 88.7059 23.2075C88.6995 23.6983 88.8282 24.1825 89.08 24.6143C89.3317 25.0461 89.6982 25.4112 90.1448 25.6752C91.8973 26.6917 93.7688 27.5205 95.7232 28.1456C98.5275 29.0855 101.268 30.1813 103.93 31.427C106.564 32.6372 108.642 34.6831 109.786 37.1928C110.364 38.708 110.645 40.307 110.613 41.9139C110.641 43.8021 110.269 45.677 109.52 47.4332C108.882 48.9621 107.907 50.351 106.658 51.5114C105.444 52.5966 104.061 53.5063 102.555 54.2102C101.07 54.9225 99.4901 55.4482 97.8557 55.7731C96.2833 56.0799 94.6807 56.2344 93.0738 56.2339C89.8496 56.2282 86.6595 55.6224 83.6928 54.4524V54.4524ZM181.492 53.5939C179.579 51.4607 178.631 48.7248 178.845 45.9585V32.8961H172.724V55.6177H162.167V24.8923H197.476V32.8961H189.435V44.1196C189.386 45.0066 189.574 45.8912 189.981 46.6951C190.18 47.0059 190.47 47.2576 190.819 47.4206C191.167 47.5836 191.558 47.6512 191.946 47.6153C193.088 47.606 194.211 47.3433 195.221 46.8492L197.835 54.0855C196.555 54.7563 195.195 55.2864 193.782 55.6653C192.078 56.061 190.325 56.2414 188.569 56.2017C187.257 56.2569 185.948 56.0529 184.728 55.6033C183.507 55.1537 182.404 54.4688 181.492 53.5939V53.5939ZM253.927 55.6177V39.7543C254.111 38.0275 253.656 36.2939 252.636 34.8386C252.088 34.3367 251.427 33.9524 250.701 33.7126C249.975 33.4728 249.202 33.3834 248.434 33.4507C247.586 33.4118 246.739 33.5486 245.954 33.8512C245.17 34.1538 244.468 34.6145 243.9 35.1999C242.685 36.6827 242.094 38.5247 242.238 40.3817H242.205V55.6177H231.614V10.1367H242.205V28.8963H242.336C243.586 27.5694 245.149 26.5271 246.903 25.8502C248.697 25.1616 250.621 24.813 252.562 24.8251C254.188 24.7997 255.808 25.0187 257.359 25.4735C258.748 25.9045 260.022 26.6033 261.098 27.5238C262.295 28.5996 263.168 29.9459 263.631 31.4298C264.256 33.3657 264.552 35.3799 264.508 37.4001V55.6177H253.927ZM139.864 55.6177L134.736 38.5093H134.636L129.608 55.6177H120.771L109.554 24.8923H120.109L125.536 41.3593H125.668L130.566 24.8923H138.879L143.81 41.3901H143.943L149.404 24.8923H159.926L148.701 55.6177H139.864ZM178.984 19.908V9.93927H189.54V19.908H178.984ZM162.175 19.908V9.93927H172.732V19.908H162.175Z" fill="#3F3B3E"/>
<path d="M168.415 68.7231C169.325 68.7231 170.126 68.9294 170.818 69.3421C171.522 69.7426 172.068 70.3313 172.457 71.1081C172.857 71.8728 173.057 72.777 173.057 73.8209C173.057 74.8526 172.857 75.7568 172.457 76.5336C172.068 77.2983 171.522 77.8869 170.818 78.2996C170.114 78.7123 169.313 78.9186 168.415 78.9186C167.395 78.9186 166.533 78.6577 165.829 78.1358C165.126 77.6139 164.64 76.922 164.373 76.0602V78.7912H163.099V65.3185H164.373V71.5815C164.64 70.7197 165.126 70.0279 165.829 69.5059C166.533 68.984 167.395 68.7231 168.415 68.7231ZM168.069 69.8519C167.365 69.8519 166.728 70.0157 166.157 70.3434C165.599 70.6712 165.162 71.1385 164.846 71.7453C164.531 72.3401 164.373 73.0319 164.373 73.8209C164.373 74.6098 164.531 75.3077 164.846 75.9146C165.162 76.5093 165.599 76.9706 166.157 77.2983C166.728 77.626 167.365 77.7898 168.069 77.7898C169.198 77.7898 170.096 77.4379 170.763 76.7339C171.431 76.0178 171.765 75.0468 171.765 73.8209C171.765 72.595 171.431 71.63 170.763 70.926C170.096 70.2099 169.198 69.8519 168.069 69.8519ZM175.622 68.8505L179.081 77.1344L182.267 68.8505H183.687L177.843 83.4884H176.386L178.389 78.682L174.202 68.8505H175.622ZM197.863 75.5323C197.863 76.1149 197.724 76.6671 197.445 77.189C197.178 77.6988 196.759 78.1176 196.188 78.4453C195.618 78.7609 194.908 78.9186 194.058 78.9186C193.233 78.9186 192.499 78.7669 191.855 78.4635C191.212 78.16 190.696 77.7474 190.308 77.2255C189.932 76.6914 189.713 76.0967 189.652 75.4412H191C191.048 75.8175 191.188 76.1938 191.418 76.57C191.649 76.9463 191.983 77.2619 192.42 77.5168C192.857 77.7595 193.385 77.8809 194.004 77.8809C194.817 77.8809 195.436 77.6624 195.861 77.2255C196.298 76.7885 196.516 76.2362 196.516 75.5687C196.516 74.9982 196.371 74.537 196.079 74.185C195.8 73.8209 195.448 73.5417 195.023 73.3475C194.611 73.1533 194.04 72.9409 193.312 72.7103C192.511 72.4554 191.861 72.2126 191.364 71.982C190.878 71.7393 190.466 71.3873 190.126 70.926C189.786 70.4648 189.616 69.8519 189.616 69.0872C189.616 68.1162 189.956 67.3273 190.636 66.7204C191.315 66.1135 192.25 65.8101 193.439 65.8101C194.653 65.8101 195.612 66.1074 196.316 66.7022C197.032 67.2969 197.457 68.0373 197.59 68.9233H196.225C196.116 68.3772 195.824 67.8916 195.351 67.4668C194.89 67.042 194.253 66.8296 193.439 66.8296C192.687 66.8296 192.086 67.0238 191.637 67.4122C191.188 67.8006 190.963 68.3407 190.963 69.0326C190.963 69.5788 191.103 70.0218 191.382 70.3616C191.661 70.7015 192.001 70.9625 192.402 71.1445C192.814 71.3266 193.373 71.5329 194.077 71.7635C194.89 72.0184 195.545 72.2672 196.043 72.51C196.553 72.7528 196.983 73.1169 197.335 73.6024C197.687 74.0879 197.863 74.7312 197.863 75.5323ZM204.702 77.6624V78.7912H203.519C202.56 78.7912 201.844 78.5667 201.37 78.1176C200.897 77.6563 200.66 76.8856 200.66 75.8054V69.9611H199.149V68.8505H200.66V66.338H201.953V68.8505H204.684V69.9611H201.953V75.8236C201.953 76.5275 202.08 77.013 202.335 77.2801C202.59 77.535 203.039 77.6624 203.683 77.6624H204.702ZM211.134 77.8627C212.032 77.8627 212.785 77.6381 213.392 77.189C213.999 76.7399 214.363 76.1331 214.484 75.3684H215.831C215.649 76.4244 215.146 77.2801 214.32 77.9355C213.495 78.5909 212.451 78.9186 211.189 78.9186C210.242 78.9186 209.398 78.7184 208.658 78.3178C207.93 77.9052 207.359 77.3165 206.947 76.5518C206.534 75.775 206.328 74.8647 206.328 73.8209C206.328 72.777 206.534 71.8728 206.947 71.1081C207.359 70.3313 207.93 69.7426 208.658 69.3421C209.398 68.9294 210.242 68.7231 211.189 68.7231C212.16 68.7231 212.997 68.9294 213.701 69.3421C214.417 69.7426 214.957 70.2828 215.322 70.9625C215.698 71.6422 215.886 72.3826 215.886 73.1836C215.886 73.5235 215.862 73.833 215.813 74.1122H207.584C207.596 74.9497 207.766 75.6536 208.094 76.2241C208.433 76.7824 208.87 77.1951 209.404 77.4621C209.939 77.7292 210.515 77.8627 211.134 77.8627ZM211.189 69.7608C210.545 69.7608 209.957 69.8944 209.423 70.1614C208.889 70.4284 208.452 70.8411 208.112 71.3994C207.784 71.9456 207.608 72.6314 207.584 73.4567H214.611C214.66 72.6435 214.527 71.9577 214.211 71.3994C213.895 70.8411 213.471 70.4284 212.936 70.1614C212.402 69.8944 211.82 69.7608 211.189 69.7608ZM219.473 70.9078C219.764 70.1917 220.231 69.6395 220.874 69.2511C221.518 68.8627 222.301 68.6685 223.223 68.6685V70.0521H222.804C221.845 70.0521 221.05 70.3131 220.419 70.835C219.788 71.3448 219.473 72.1823 219.473 73.3475V78.7912H218.18V68.8505H219.473V70.9078ZM226.211 65.3185V78.7912H224.918V65.3185H226.211ZM228.681 65.9011C228.681 65.6341 228.766 65.4217 228.936 65.2639C229.118 65.1061 229.348 65.0272 229.628 65.0272C229.907 65.0272 230.131 65.1061 230.301 65.2639C230.471 65.4217 230.556 65.6341 230.556 65.9011C230.556 66.156 230.471 66.3623 230.301 66.5201C230.131 66.6779 229.907 66.7568 229.628 66.7568C229.348 66.7568 229.118 66.6779 228.936 66.5201C228.766 66.3623 228.681 66.156 228.681 65.9011ZM230.265 68.8505V78.7912H228.972V68.8505H230.265ZM237.996 68.6685C239.149 68.6685 240.084 69.0387 240.8 69.779C241.528 70.5073 241.892 71.5815 241.892 73.0016V78.7912H240.636V73.0926C240.636 72.0124 240.363 71.187 239.817 70.6165C239.271 70.0339 238.524 69.7426 237.578 69.7426C236.582 69.7426 235.787 70.0643 235.192 70.7076C234.61 71.3387 234.319 72.2733 234.319 73.5114V78.7912H233.026V68.8505H234.319V71.2902C234.573 70.4405 235.035 69.7912 235.702 69.3421C236.37 68.893 237.135 68.6685 237.996 68.6685ZM248.77 68.7231C249.778 68.7231 250.633 68.984 251.337 69.5059C252.053 70.0279 252.545 70.7197 252.812 71.5815V68.8505H254.068V79.0279C254.068 79.9503 253.874 80.7575 253.486 81.4493C253.097 82.1533 252.557 82.6934 251.865 83.0697C251.173 83.4581 250.384 83.6523 249.498 83.6523C248.2 83.6523 247.132 83.3367 246.294 82.7056C245.469 82.0866 244.929 81.243 244.674 80.1749H245.948C246.167 80.9031 246.567 81.4797 247.15 81.9045C247.745 82.3293 248.503 82.5417 249.426 82.5417C250.057 82.5417 250.627 82.4021 251.137 82.123C251.659 81.8559 252.066 81.4554 252.357 80.9213C252.66 80.3873 252.812 79.7561 252.812 79.0279V76.0602C252.545 76.922 252.053 77.6139 251.337 78.1358C250.633 78.6577 249.778 78.9186 248.77 78.9186C247.872 78.9186 247.065 78.7123 246.349 78.2996C245.645 77.8869 245.092 77.2983 244.692 76.5336C244.304 75.7568 244.109 74.8526 244.109 73.8209C244.109 72.777 244.304 71.8728 244.692 71.1081C245.092 70.3313 245.645 69.7426 246.349 69.3421C247.053 68.9294 247.86 68.7231 248.77 68.7231ZM249.098 69.8519C247.981 69.8519 247.083 70.2099 246.403 70.926C245.736 71.63 245.402 72.595 245.402 73.8209C245.402 75.0468 245.736 76.0178 246.403 76.7339C247.083 77.4379 247.981 77.7898 249.098 77.7898C249.802 77.7898 250.433 77.626 250.991 77.2983C251.562 76.9706 252.005 76.5093 252.32 75.9146C252.648 75.3077 252.812 74.6098 252.812 73.8209C252.812 73.0319 252.648 72.3401 252.32 71.7453C252.005 71.1385 251.562 70.6712 250.991 70.3434C250.433 70.0157 249.802 69.8519 249.098 69.8519Z" fill="#484347"/>
<path d="M8.48038 41.7669L17.5138 35.8933L27.0173 47.9067L35.0275 42.8173L18.212 21.303C18.212 21.303 14.1299 13.7501 16.944 6.61462C10.9877 9.37779 5.59367 12.6647 2.79463 16.138C1.24544 18.2763 0.304792 20.7429 0.0601093 23.3085C-0.184573 25.874 0.274653 28.4553 1.39511 30.8123C1.98605 31.9635 8.48038 41.7669 8.48038 41.7669Z" fill="#6C6DFF"/>
<path d="M20.6449 18.4137L33.8633 9.74886L44.9809 24.2285L52.7962 18.4095C52.7962 18.4095 43.8096 6.65938 41.1707 4.06147C38.5319 1.46356 33.5051 -2.52084 24.6848 2.1694C15.8645 6.85965 20.6449 18.4137 20.6449 18.4137Z" fill="#6C6DFF"/>
<path d="M22.7207 21.4303L40.1845 43.5581L29.2271 50.709C29.2271 50.709 34.934 55.3684 37.8721 56.3278C41.8183 57.6176 45.4289 57.6176 48.6844 55.3978C54.5787 51.3728 52.0245 42.1618 52.0245 42.1618C52.0245 42.1618 51.7056 40.2978 46.6229 33.067C41.5402 25.8363 32.9889 14.729 32.9889 14.729L22.7207 21.4303Z" fill="#5232CF"/>
<path d="M26.3731 52.4344C30.0616 56.1168 34.8405 58.709 40.1114 59.8864C35.0616 63.9556 28.5729 66.1614 21.8813 66.0836C10.3783 66.0836 0.513672 50.7538 0.513672 50.7538L16.5825 40.2305C16.5825 40.2305 26.225 52.2747 26.3731 52.4344Z" fill="#5232CF"/>
</g>
<defs>
<clipPath id="clip0_100_3917">
<rect width="266" height="84" fill="white"/>
</clipPath>
</defs>
</svg>
